<?xml version="1.0" standalone="no"?>
<!DOCTYPE svg PUBLIC "-//W3C//DTD SVG 20010904//EN"
        "http://www.w3.org/TR/2001/REC-SVG-20010904/DTD/svg10.dtd">
<svg version="1.0" xmlns="http://www.w3.org/2000/svg"
     width="100"
     height="100"
     viewBox="0 0 112.000000 75.000000">

    <defs>
        <filter id="shadow" x="-50%" y="-50%" width="200%" height="200%">
            <feDropShadow dx="6" dy="6" stdDeviation="2" flood-color="black" flood-opacity="0.25"/>
        </filter>
    </defs>

    <!-- polygon -->
    <polygon points="25,77 57,65 86,77 57,93" fill="#ffffff" opacity="0.6"/>

    <polygon points="25,62 57,50 86,62 57,78" fill="#ffffff" opacity="0.6"/>

    <polygon points="25,47 57,35 86,47 57,63" fill="#ffffff" opacity="0.6"/>

    <polygon filter="url(#shadow)" points="55,62 87,48 86,77 57,93" fill="##979797" opacity="0.7"/>

    <polygon points="25,47 57,62 57,93 25,77" fill="##979797" opacity="0.7"/>

    <!-- dot -->
    <g transform="translate(0.000000,76.000000) scale(0.100000,-0.100000)"
       fill="#3a7ff7" stroke="none">
        <path d="M780 179 c0 -17 4 -28 10 -24 6 3 10 17 10 31 0 13 -4 24 -10 24 -50 -10 -14 -10 -31z"/>
    </g>

    <g transform="translate(-5.000000,79.000000) scale(0.100000,-0.100000)"
       fill="#3a7ff7" stroke="none">
        <path d="M780 179 c0 -17 4 -28 10 -24 6 3 10 17 10 31 0 13 -4 24 -10 24 -50 -10 -14 -10 -31z"/>
    </g>

    <!-- edge square -->
    <g transform="translate(0.000000,70.000000) scale(0.100000,-0.100000)"
       fill="#3a7ff7" opacity="0.7">
        <!-- Path defining a complex shape with curves and lines -->
        <path d="M259 221 c8 -5 10 -14 6 -21 -5 -9 -4 -11 4 -6 16 10 51 -3 45 -17 -3 -9 5 -13 23 -12 18 0 27 -5 25 -13 -1 -8 5 -11 21 -6 15 3 30 0 40 -10 8 -9 18 -16 22 -16 3 0 31 -12 61 -26 52 -25 56 -25 93 -10 21 8 42 12 46 8 5 -4 5 -2 1 5 -8 15 37 29 56 17 10 -6 10 -4 -1 9 -12 15 -10 18 18 23 17 4 34 11 37 15 3 5 12 9 20 9 9 0 23 7 31 16 10 10 26 13 42 10 14 -3 20 -3 13 0 -10 5 -10 9 -1 20 6 8 9 14 5 14 -3 0 -73 -34 -156 -75 -144 -72 -150 -74 -177 -60 -64 34 -275 135 -281 135 -4 0 -1 -4 7 -9z"/>
    </g>

    <g transform="translate(0.000000,85.000000) scale(0.100000,-0.100000)"
       fill="#3a7ff7" opacity="0.7">
        <!-- Path defining a complex shape with curves and lines -->
        <path d="M259 221 c8 -5 10 -14 6 -21 -5 -9 -4 -11 4 -6 16 10 51 -3 45 -17 -3 -9 5 -13 23 -12 18 0 27 -5 25 -13 -1 -8 5 -11 21 -6 15 3 30 0 40 -10 8 -9 18 -16 22 -16 3 0 31 -12 61 -26 52 -25 56 -25 93 -10 21 8 42 12 46 8 5 -4 5 -2 1 5 -8 15 37 29 56 17 10 -6 10 -4 -1 9 -12 15 -10 18 18 23 17 4 34 11 37 15 3 5 12 9 20 9 9 0 23 7 31 16 10 10 26 13 42 10 14 -3 20 -3 13 0 -10 5 -10 9 -1 20 6 8 9 14 5 14 -3 0 -73 -34 -156 -75 -144 -72 -150 -74 -177 -60 -64 34 -275 135 -281 135 -4 0 -1 -4 7 -9z"/>
    </g>

    <g filter="url(#shadow)"
       transform="translate(0.000000,100.000000) scale(0.100000,-0.100000)"
       fill="#3a7ff7" opacity="0.7">
        <!-- Path defining a complex shape with curves and lines -->
        <path d="M259 221 c8 -5 10 -14 6 -21 -5 -9 -4 -11 4 -6 16 10 51 -3 45 -17 -3 -9 5 -13 23 -12 18 0 27 -5 25 -13 -1 -8 5 -11 21 -6 15 3 30 0 40 -10 8 -9 18 -16 22 -16 3 0 31 -12 61 -26 52 -25 56 -25 93 -10 21 8 42 12 46 8 5 -4 5 -2 1 5 -8 15 37 29 56 17 10 -6 10 -4 -1 9 -12 15 -10 18 18 23 17 4 34 11 37 15 3 5 12 9 20 9 9 0 23 7 31 16 10 10 26 13 42 10 14 -3 20 -3 13 0 -10 5 -10 9 -1 20 6 8 9 14 5 14 -3 0 -73 -34 -156 -75 -144 -72 -150 -74 -177 -60 -64 34 -275 135 -281 135 -4 0 -1 -4 7 -9z"/>
    </g>
</svg>
